<svg id="图层_1" data-name="图层 1" xmlns="http://www.w3.org/2000/svg" viewBox="0 0 166.88 242.69"><defs><style>.cls-1{fill:#fff;}.cls-1,.cls-2{stroke:#000;stroke-width:0.5px;}.cls-2{fill:none;}.cls-3{fill:#d96362;}</style></defs><title>back</title><path class="cls-1" d="M159.78,242.42H7.31c-.39-.09-6.35-3.09-6.93-8V8.22A9.83,9.83,0,0,1,1.45,3.49a5,5,0,0,1,.87-1.12A6.88,6.88,0,0,1,4.12.77,7,7,0,0,1,7.31.25H159.78c4.12.62,4.57,2.37,4.9,2.6a8.9,8.9,0,0,1,2.08,5.37V234.45a7.59,7.59,0,0,1-2.75,4.84A22,22,0,0,1,159.78,242.42Z" transform="translate(-0.13 0.02)"/><path class="cls-2" d="M7.31,242.42c-.39-.09-6.34-3-6.93-8" transform="translate(-0.13 0.02)"/><path class="cls-3" d="M6.31,25.16H159.78v4H6.31Z" transform="translate(-0.13 0.02)"/><path class="cls-3" d="M6.31,38.12H159.78v4H6.31Z" transform="translate(-0.13 0.02)"/><path class="cls-3" d="M6.31,52.07H159.78v4H6.31Z" transform="translate(-0.13 0.02)"/><path class="cls-3" d="M6.31,65H159.78v4H6.31Z" transform="translate(-0.13 0.02)"/><path class="cls-3" d="M6.31,79H159.78v4H6.31Z" transform="translate(-0.13 0.02)"/><path class="cls-3" d="M6.31,91.93H159.78v4H6.31Z" transform="translate(-0.13 0.02)"/><path class="cls-3" d="M6.31,105.89H159.78v4H6.31Z" transform="translate(-0.13 0.02)"/><path class="cls-3" d="M6.31,118.84H159.78v4H6.31Z" transform="translate(-0.13 0.02)"/><path class="cls-3" d="M6.31,132.79H159.78v4H6.31Z" transform="translate(-0.13 0.02)"/><path class="cls-3" d="M6.31,145.75H159.78v4H6.31Z" transform="translate(-0.13 0.02)"/><path class="cls-3" d="M6.31,159.7H159.78v4H6.31Z" transform="translate(-0.13 0.02)"/><path class="cls-3" d="M6.31,172.66H159.78v4H6.31Z" transform="translate(-0.13 0.02)"/><path class="cls-3" d="M6.31,186.61H159.78v4H6.31Z" transform="translate(-0.13 0.02)"/><path class="cls-3" d="M6.31,199.56H159.78v4H6.31Z" transform="translate(-0.13 0.02)"/><path class="cls-3" d="M6.31,213.52H159.78v4H6.31Z" transform="translate(-0.13 0.02)"/><path class="cls-3" d="M6.31,11.21H159.78v4H6.31Z" transform="translate(-0.13 0.02)"/><path class="cls-3" d="M6.31,226.47H159.78v4H6.31Z" transform="translate(-0.13 0.02)"/><path class="cls-3" d="M7.31,8.22h4V234.45h-4Z" transform="translate(-0.13 0.02)"/><path class="cls-3" d="M16.27,8.22h4V234.45h-4Z" transform="translate(-0.13 0.02)"/><path class="cls-3" d="M25.24,8.22h4V234.45h-4Z" transform="translate(-0.13 0.02)"/><path class="cls-3" d="M33.22,8.22h4V234.45h-4Z" transform="translate(-0.13 0.02)"/><path class="cls-3" d="M42.19,8.22h4V234.45h-4Z" transform="translate(-0.13 0.02)"/><path class="cls-3" d="M51.15,8.22h4V234.45h-4Z" transform="translate(-0.13 0.02)"/><path class="cls-3" d="M60.12,8.22h4V234.45h-4Z" transform="translate(-0.13 0.02)"/><path class="cls-3" d="M68.1,8.22h4V234.45h-4Z" transform="translate(-0.13 0.02)"/><path class="cls-3" d="M77.07,8.22h4V234.45h-4Z" transform="translate(-0.13 0.02)"/><path class="cls-3" d="M86,8.22h4V234.45H86Z" transform="translate(-0.13 0.02)"/><path class="cls-3" d="M95,8.22h4V234.45H95Z" transform="translate(-0.13 0.02)"/><path class="cls-3" d="M103,8.22h4V234.45h-4Z" transform="translate(-0.13 0.02)"/><path class="cls-3" d="M112,8.22h4V234.45h-4Z" transform="translate(-0.13 0.02)"/><path class="cls-3" d="M120.92,8.22h4V234.45h-4Z" transform="translate(-0.13 0.02)"/><path class="cls-3" d="M129.88,8.22h4V234.45h-4Z" transform="translate(-0.13 0.02)"/><path class="cls-3" d="M137.86,8.22h4V234.45h-4Z" transform="translate(-0.13 0.02)"/><path class="cls-3" d="M146.83,8.22h4V234.45h-4Z" transform="translate(-0.13 0.02)"/><path class="cls-3" d="M155.8,8.22h4V234.45h-4Z" transform="translate(-0.13 0.02)"/></svg>